<svg width="504" height="401" viewBox="0 0 504 401" fill="none" xmlns="http://www.w3.org/2000/svg">
<path fill-rule="evenodd" clip-rule="evenodd" d="M90.4377 0.900246C84.2847 3.37925 86.0426 10.8902 93.2846 13.0602C97.1406 14.2152 97.7767 14.1112 102.279 11.5982C105.146 9.99724 108.655 8.89425 110.874 8.89625C116.298 8.90025 136.415 14.1933 146.574 18.2893C192.509 36.8123 225.997 81.3223 241.682 144.703C244.839 157.459 246.29 161.059 247.706 159.643C250.236 157.114 244.236 131.967 235.788 109.687C230.361 95.3723 218.071 73.2963 208.407 60.4993C201.155 50.8973 184.459 34.9752 174.614 28.2712C156.835 16.1662 138.098 8.68326 115.859 4.80726C109.94 3.77526 103.774 2.24727 102.159 1.41227C98.9407 -0.25173 93.8497 -0.474754 90.4377 0.900246ZM401.234 3.08625C398.821 4.18825 393.196 5.69525 388.734 6.43525C384.273 7.17525 377.023 8.75327 372.623 9.94227C368.223 11.1323 363.604 12.3363 362.358 12.6183C361.113 12.9013 359.849 13.5282 359.549 14.0122C359.25 14.4972 358.329 14.8933 357.502 14.8933C355.711 14.8933 342.659 21.0963 335.623 25.2913C321.363 33.7923 304.255 49.5233 293.643 63.8933C290.597 68.0183 287.754 71.8433 287.325 72.3933C284.657 75.8173 278.191 87.5613 273.164 98.1143C260.702 124.274 250.728 161.893 256.255 161.893C257.565 161.893 258.875 158.002 261.241 147.081C271.887 97.9443 298.919 54.9993 333.578 32.1623C341.158 27.1673 358.114 18.8462 364.623 16.9262C375.46 13.7312 384.202 11.7452 389.784 11.2102C394.983 10.7132 396.486 10.9543 399.402 12.7573C404.613 15.9773 410.523 15.6473 414.243 11.9273C417.092 9.07825 417.15 8.84526 415.701 6.04426C414.802 4.30626 413.068 2.85926 411.408 2.46326C409.876 2.09727 407.948 1.63725 407.123 1.44025C406.298 1.24425 403.648 1.98425 401.234 3.08625ZM81.0396 61.3093C80.8106 61.5383 62.8476 62.2703 41.1227 62.9373C12.9627 63.8003 1.24764 64.4973 0.314638 65.3643C-0.926363 66.5183 1.43664 73.9423 8.59964 91.3933C9.27664 93.0433 11.5797 98.8933 13.7177 104.393C23.6427 129.928 40.4366 158.444 59.9466 182.893C79.4616 207.347 112.199 234.965 133.123 244.628C145.967 250.559 149.666 251.393 163.123 251.393C174.231 251.393 176.615 251.068 184.529 248.476C197.785 244.133 202.142 239.277 202.096 228.893C202.016 210.781 175.52 181.178 131.613 150.143C126.75 146.706 123.302 143.893 123.95 143.893C126.44 143.893 152.388 158.642 164.123 166.728C198.783 190.608 213.123 208.848 213.123 229.052C213.123 238.865 209.444 245.743 200.623 252.424C191.059 259.668 179.483 262.779 156.235 264.351C129.065 266.188 110.43 275.52 99.1836 292.92C90.9896 305.598 88.1216 319.482 88.1236 346.471C88.1246 358.818 88.6457 368.347 89.6227 373.893C90.4456 378.568 91.1207 382.558 91.1217 382.76C91.1237 383.274 91.9176 383.082 127.623 373.929C166.47 363.971 164.623 364.469 170.024 362.489C192.441 354.269 209.769 338.555 220.853 316.393C227.159 303.786 235.611 280.188 238.584 266.893C239.507 262.768 240.687 257.593 241.207 255.393C245.117 238.858 246.319 202.91 243.616 183.317C238.704 147.706 227.373 124.172 203.645 100.297C181.293 77.8063 161.222 67.7693 128.754 62.8453C117.11 61.0793 82.3886 59.9613 81.0396 61.3093ZM383.123 78.8912C341.74 82.9592 310.698 100.027 286.732 131.893C268.108 156.657 259.786 182.757 258.516 220.393C257.685 245.008 260.569 274.708 264.617 283.24C265.544 285.194 266.056 287.193 265.753 287.682C265.152 288.656 273.165 312.497 277.588 322.893C286.597 344.07 295.474 356.341 309.27 366.687C321.203 375.635 331.91 380.082 356.623 386.351C364.323 388.305 372.198 390.346 374.123 390.888C376.048 391.43 382.348 393.036 388.123 394.456C393.898 395.877 400.901 397.603 403.686 398.291C406.47 398.98 409.26 399.86 409.885 400.246C411.726 401.384 412.856 398.004 414.091 387.663C416.512 367.385 415.316 338.445 411.558 326.393C405.645 307.425 392.384 293.364 374.623 287.23C363.243 283.299 361.581 282.941 349.99 281.925C314.274 278.794 303.011 274.322 293.241 259.393C290.881 255.788 290.623 254.455 290.623 245.893C290.623 236.755 290.784 236.064 294.849 227.751C303.767 209.516 329.413 187.883 365.651 168.03C379.745 160.308 384.571 158.688 375.985 164.561C349.463 182.701 327.376 201.996 313.948 218.755C300.551 235.476 297.452 250.053 305.44 258.778C313.411 267.486 339.988 271.752 356.891 267.038C384.146 259.435 425.624 225.362 452.475 188.518C468.997 165.847 483.817 137.719 495.743 106.393C499.932 95.3933 503.418 85.4933 503.491 84.3933C503.611 82.5783 502.79 82.3293 494.623 81.7033C484.803 80.9513 436.965 79.1453 409.123 78.4763C399.498 78.2443 387.798 78.4312 383.123 78.8912Z" fill="#94BBC6"/>
</svg>
